<mxfile host="app.diagrams.net" modified="2020-12-03T07:45:23.925Z" agent="5.0 (Windows NT 10.0; Win64; x64) AppleWebKit/537.36 (KHTML, like Gecko) Chrome/86.0.4240.198 Safari/537.36" etag="C6OU5mVjfcdQvpFAvGdP" version="13.10.6" type="github">
  <diagram id="yNFJQUpO8xLyMeURUrjP" name="Page-1">
    <mxGraphModel dx="1102" dy="582" grid="1" gridSize="10" guides="1" tooltips="1" connect="1" arrows="1" fold="1" page="1" pageScale="1" pageWidth="827" pageHeight="1169" math="0" shadow="0">
      <root>
        <mxCell id="0" />
        <mxCell id="1" parent="0" />
        <mxCell id="EpEfNO5enduqCYLHBUK7-1" value="OVS-DPDK" style="rounded=1;whiteSpace=wrap;html=1;" vertex="1" parent="1">
          <mxGeometry x="294" y="210" width="256" height="60" as="geometry" />
        </mxCell>
        <mxCell id="EpEfNO5enduqCYLHBUK7-6" style="edgeStyle=orthogonalEdgeStyle;rounded=0;orthogonalLoop=1;jettySize=auto;html=1;exitX=0.5;exitY=1;exitDx=0;exitDy=0;entryX=0.25;entryY=0;entryDx=0;entryDy=0;endArrow=none;endFill=0;" edge="1" parent="1" source="EpEfNO5enduqCYLHBUK7-2" target="EpEfNO5enduqCYLHBUK7-1">
          <mxGeometry relative="1" as="geometry" />
        </mxCell>
        <mxCell id="EpEfNO5enduqCYLHBUK7-2" value="ovsdb-server" style="rounded=0;whiteSpace=wrap;html=1;" vertex="1" parent="1">
          <mxGeometry x="305" y="60" width="106" height="98" as="geometry" />
        </mxCell>
        <mxCell id="EpEfNO5enduqCYLHBUK7-7" style="edgeStyle=orthogonalEdgeStyle;rounded=0;orthogonalLoop=1;jettySize=auto;html=1;exitX=0.5;exitY=1;exitDx=0;exitDy=0;entryX=0.75;entryY=0;entryDx=0;entryDy=0;endArrow=none;endFill=0;" edge="1" parent="1" source="EpEfNO5enduqCYLHBUK7-4" target="EpEfNO5enduqCYLHBUK7-1">
          <mxGeometry relative="1" as="geometry" />
        </mxCell>
        <mxCell id="EpEfNO5enduqCYLHBUK7-4" value="" style="rounded=0;whiteSpace=wrap;html=1;" vertex="1" parent="1">
          <mxGeometry x="431" y="60" width="110" height="98" as="geometry" />
        </mxCell>
        <mxCell id="EpEfNO5enduqCYLHBUK7-10" value="ovs-vswitchd" style="text;html=1;strokeColor=none;fillColor=none;align=center;verticalAlign=middle;whiteSpace=wrap;rounded=0;" vertex="1" parent="1">
          <mxGeometry x="449" y="70" width="74" height="20" as="geometry" />
        </mxCell>
        <mxCell id="EpEfNO5enduqCYLHBUK7-11" value="dpdk" style="rounded=1;whiteSpace=wrap;html=1;" vertex="1" parent="1">
          <mxGeometry x="441" y="114" width="90" height="28" as="geometry" />
        </mxCell>
        <mxCell id="EpEfNO5enduqCYLHBUK7-12" value="virtio-user" style="rounded=1;whiteSpace=wrap;html=1;" vertex="1" parent="1">
          <mxGeometry x="449" y="150" width="70" height="20" as="geometry" />
        </mxCell>
        <mxCell id="EpEfNO5enduqCYLHBUK7-13" value="vhost-user" style="rounded=1;whiteSpace=wrap;html=1;" vertex="1" parent="1">
          <mxGeometry x="453" y="200" width="70" height="20" as="geometry" />
        </mxCell>
      </root>
    </mxGraphModel>
  </diagram>
</mxfile>
